<svg width="1663" height="815" viewBox="0 0 1663 815" fill="none" xmlns="http://www.w3.org/2000/svg">
<path d="M1694.5 -79.5V39.1452L1483.53 -79.5H1694.5Z" stroke="black" stroke-opacity="0.05"/>
<path d="M1268.75 -79.5H1479.72L1268.75 39.1452V-79.5Z" stroke="black" stroke-opacity="0.05"/>
<path d="M1268.75 40.8548L1479.72 159.5H1268.75V40.8548Z" stroke="black" stroke-opacity="0.05"/>
<path d="M1483.53 159.5L1694.5 40.8548V159.5H1483.53Z" stroke="black" stroke-opacity="0.05"/>
<path d="M1056.78 -79.5H1267.75V39.1452L1056.78 -79.5Z" stroke="black" stroke-opacity="0.05"/>
<path d="M1054.38 39.1452L843.409 -79.5H1054.38V39.1452Z" stroke="black" stroke-opacity="0.05"/>
<path d="M1054.38 99.5H950.097L1054.38 40.8548V99.5Z" stroke="black" stroke-opacity="0.05"/>
<path d="M947.688 40.5V99.1452L843.409 40.5H947.688Z" stroke="black" stroke-opacity="0.05"/>
<path d="M947.688 100.5V159.145L843.409 100.5H947.688Z" stroke="black" stroke-opacity="0.05"/>
<path d="M1052.97 159.5H948.688V100.855L1052.97 159.5Z" stroke="black" stroke-opacity="0.05"/>
<path d="M1267.75 99.5H1163.47L1267.75 40.8548V99.5Z" stroke="black" stroke-opacity="0.05"/>
<path d="M1161.06 99.5H1056.78L1161.06 40.8548V99.5Z" stroke="black" stroke-opacity="0.05"/>
<path d="M1056.78 100.5H1161.06V159.145L1056.78 100.5Z" stroke="black" stroke-opacity="0.05"/>
<path d="M1163.47 100.5H1267.75V159.145L1163.47 100.5Z" stroke="black" stroke-opacity="0.05"/>
<path d="M1163.47 219.5L1267.75 160.855V219.5H1163.47Z" stroke="black" stroke-opacity="0.05"/>
<path d="M1056.78 219.5L1161.06 160.855V219.5H1056.78Z" stroke="black" stroke-opacity="0.05"/>
<path d="M1055.38 220.855L1159.65 279.5H1055.38V220.855Z" stroke="black" stroke-opacity="0.05"/>
<path d="M1267.75 279.145L1163.47 220.5H1267.75V279.145Z" stroke="black" stroke-opacity="0.05"/>
<path d="M842 279.5V160.855L1052.97 279.5H842Z" stroke="black" stroke-opacity="0.05"/>
<path d="M1054.38 280.5V339.145L950.097 280.5H1054.38Z" stroke="black" stroke-opacity="0.05"/>
<path d="M947.688 280.5V339.145L843.409 280.5H947.688Z" stroke="black" stroke-opacity="0.05"/>
<path d="M947.688 399.5H843.409L947.688 340.855V399.5Z" stroke="black" stroke-opacity="0.05"/>
<path d="M950.097 399.5L1054.38 340.855V399.5H950.097Z" stroke="black" stroke-opacity="0.05"/>
<path d="M1267.75 280.5V399.145L1056.78 280.5H1267.75Z" stroke="black" stroke-opacity="0.05"/>
<path d="M1482.12 160.855L1693.09 279.5H1482.12V160.855Z" stroke="black" stroke-opacity="0.05"/>
<path d="M1479.72 160.5L1268.75 279.145V160.5H1479.72Z" stroke="black" stroke-opacity="0.05"/>
<path d="M1270.16 399.5L1481.12 280.855V399.5H1270.16Z" stroke="black" stroke-opacity="0.05"/>
<path d="M1483.53 399.5L1694.5 280.855V399.5H1483.53Z" stroke="black" stroke-opacity="0.05"/>
<path d="M841 39.5H630.034L841 -79.1452V39.5Z" stroke="black" stroke-opacity="0.05"/>
<path d="M415.25 -79.1452L626.216 39.5H415.25V-79.1452Z" stroke="black" stroke-opacity="0.05"/>
<path d="M415.25 40.8548L626.216 159.5H415.25V40.8548Z" stroke="black" stroke-opacity="0.05"/>
<path d="M628.625 40.5H839.591L628.625 159.145V40.5Z" stroke="black" stroke-opacity="0.05"/>
<path d="M201.875 -79.5H412.841L201.875 39.1452V-79.5Z" stroke="black" stroke-opacity="0.05"/>
<path d="M200.875 39.1452L-10.0909 -79.5H200.875V39.1452Z" stroke="black" stroke-opacity="0.05"/>
<path d="M200.875 40.5V159.145L-10.0909 40.5H200.875Z" stroke="black" stroke-opacity="0.05"/>
<path d="M203.284 40.5H414.25V159.145L203.284 40.5Z" stroke="black" stroke-opacity="0.05"/>
<path d="M414.25 279.5H203.284L414.25 160.855V279.5Z" stroke="black" stroke-opacity="0.05"/>
<path d="M200.875 160.5V279.145L-10.0909 160.5H200.875Z" stroke="black" stroke-opacity="0.05"/>
<path d="M-10.0909 399.5L200.875 280.855V399.5H-10.0909Z" stroke="black" stroke-opacity="0.05"/>
<path d="M203.284 399.5L414.25 280.855V399.5H203.284Z" stroke="black" stroke-opacity="0.05"/>
<path d="M841 219.5H736.722L841 160.855V219.5Z" stroke="black" stroke-opacity="0.05"/>
<path d="M628.625 160.855L732.903 219.5H628.625V160.855Z" stroke="black" stroke-opacity="0.05"/>
<path d="M628.625 220.855L732.903 279.5H628.625V220.855Z" stroke="black" stroke-opacity="0.05"/>
<path d="M735.312 220.855L839.591 279.5H735.312V220.855Z" stroke="black" stroke-opacity="0.05"/>
<path d="M627.625 279.5H416.659L627.625 160.855V279.5Z" stroke="black" stroke-opacity="0.05"/>
<path d="M521.938 280.855L626.216 339.5H521.938V280.855Z" stroke="black" stroke-opacity="0.05"/>
<path d="M520.938 280.5V339.145L416.659 280.5H520.938Z" stroke="black" stroke-opacity="0.05"/>
<path d="M520.938 340.5V399.145L416.659 340.5H520.938Z" stroke="black" stroke-opacity="0.05"/>
<path d="M521.938 399.5V340.855L626.216 399.5H521.938Z" stroke="black" stroke-opacity="0.05"/>
<path d="M841 280.5V339.145L736.722 280.5H841Z" stroke="black" stroke-opacity="0.05"/>
<path d="M628.625 339.145V280.5H732.903L628.625 339.145Z" stroke="black" stroke-opacity="0.05"/>
<path d="M628.625 340.5H732.903L628.625 399.145V340.5Z" stroke="black" stroke-opacity="0.05"/>
<path d="M841 340.855V399.5H736.722L841 340.855Z" stroke="black" stroke-opacity="0.05"/>
<path d="M841 400.5V459.145L736.722 400.5H841Z" stroke="black" stroke-opacity="0.05"/>
<path d="M628.625 400.5H732.903L628.625 459.145V400.5Z" stroke="black" stroke-opacity="0.05"/>
<path d="M734.312 519.5H630.034L734.312 460.855V519.5Z" stroke="black" stroke-opacity="0.05"/>
<path d="M841 519.5H736.722L841 460.855V519.5Z" stroke="black" stroke-opacity="0.05"/>
<path d="M523.347 459.5L627.625 400.855V459.5H523.347Z" stroke="black" stroke-opacity="0.05"/>
<path d="M520.938 459.5H416.659L520.938 400.855V459.5Z" stroke="black" stroke-opacity="0.05"/>
<path d="M416.659 519.5L520.938 460.855V519.5H416.659Z" stroke="black" stroke-opacity="0.05"/>
<path d="M523.347 519.5L627.625 460.855V519.5H523.347Z" stroke="black" stroke-opacity="0.05"/>
<path d="M415.25 520.5H626.216L415.25 639.145V520.5Z" stroke="black" stroke-opacity="0.05"/>
<path d="M841 520.5V639.145L630.034 520.5H841Z" stroke="black" stroke-opacity="0.05"/>
<path d="M203.284 400.5H414.25V519.145L203.284 400.5Z" stroke="black" stroke-opacity="0.05"/>
<path d="M200.875 519.5H-10.0909L200.875 400.855V519.5Z" stroke="black" stroke-opacity="0.05"/>
<path d="M200.875 520.5V639.145L-10.0909 520.5H200.875Z" stroke="black" stroke-opacity="0.05"/>
<path d="M414.25 639.5H203.284L414.25 520.855V639.5Z" stroke="black" stroke-opacity="0.05"/>
<path d="M414.25 640.5V879.145L-10.0909 640.5H414.25Z" stroke="black" stroke-opacity="0.05"/>
<path d="M841 640.5V699.145L736.722 640.5H841Z" stroke="black" stroke-opacity="0.05"/>
<path d="M630.034 699.5L734.312 640.855V699.5H630.034Z" stroke="black" stroke-opacity="0.05"/>
<path d="M734.312 759.5H630.034L734.312 700.855V759.5Z" stroke="black" stroke-opacity="0.05"/>
<path d="M735.312 759.5V700.855L839.591 759.5H735.312Z" stroke="black" stroke-opacity="0.05"/>
<path d="M627.625 759.145L416.659 640.5H627.625V759.145Z" stroke="black" stroke-opacity="0.05"/>
<path d="M627.625 879.5H416.659L627.625 760.855V879.5Z" stroke="black" stroke-opacity="0.05"/>
<path d="M630.034 879.5L841 760.855V879.5H630.034Z" stroke="black" stroke-opacity="0.05"/>
<path d="M1482.12 400.5H1693.09L1482.12 519.145V400.5Z" stroke="black" stroke-opacity="0.05"/>
<path d="M1268.75 519.145V400.5H1479.72L1268.75 519.145Z" stroke="black" stroke-opacity="0.05"/>
<path d="M1481.12 639.5H1270.16L1481.12 520.855V639.5Z" stroke="black" stroke-opacity="0.05"/>
<path d="M1693.09 520.5L1482.12 639.145V520.5H1693.09Z" stroke="black" stroke-opacity="0.05"/>
<path d="M1267.75 400.5V519.145L1056.78 400.5H1267.75Z" stroke="black" stroke-opacity="0.05"/>
<path d="M1054.38 400.5V519.145L843.409 400.5H1054.38Z" stroke="black" stroke-opacity="0.05"/>
<path d="M1052.97 639.5H842V520.855L1052.97 639.5Z" stroke="black" stroke-opacity="0.05"/>
<path d="M1055.38 639.5V520.855L1266.34 639.5H1055.38Z" stroke="black" stroke-opacity="0.05"/>
<path d="M1056.78 640.5H1267.75V759.145L1056.78 640.5Z" stroke="black" stroke-opacity="0.05"/>
<path d="M843.409 759.5L1054.38 640.855V759.5H843.409Z" stroke="black" stroke-opacity="0.05"/>
<path d="M843.409 879.5L1054.38 760.855V879.5H843.409Z" stroke="black" stroke-opacity="0.05"/>
<path d="M1056.78 879.5L1267.75 760.855V879.5H1056.78Z" stroke="black" stroke-opacity="0.05"/>
<path d="M1483.53 759.5L1694.5 640.855V759.5H1483.53Z" stroke="black" stroke-opacity="0.05"/>
<path d="M1481.12 640.5V759.145L1270.16 640.5H1481.12Z" stroke="black" stroke-opacity="0.05"/>
<path d="M1481.12 879.5H1270.16L1481.12 760.855V879.5Z" stroke="black" stroke-opacity="0.05"/>
<path d="M1482.12 760.5H1693.09L1482.12 879.145V760.5Z" stroke="black" stroke-opacity="0.05"/>
</svg>
