<svg width="120" height="120" viewBox="0 0 120 120" fill="none" xmlns="http://www.w3.org/2000/svg">
<g clip-path="url(#clip0_314_370)">
<path d="M59.9998 119.19C92.6896 119.19 119.19 92.6896 119.19 59.9998C119.19 27.3099 92.6896 0.80957 59.9998 0.80957C27.3099 0.80957 0.80957 27.3099 0.80957 59.9998C0.80957 92.6896 27.3099 119.19 59.9998 119.19Z" fill="#FFF2F5"/>
<path d="M60.0909 113.476C89.574 113.476 113.475 89.575 113.475 60.0919C113.475 30.6088 89.574 6.70801 60.0909 6.70801C30.6078 6.70801 6.70703 30.6088 6.70703 60.0919C6.70703 89.575 30.6078 113.476 60.0909 113.476Z" stroke="url(#paint0_linear_314_370)" stroke-width="0.789203" stroke-linecap="round" stroke-linejoin="bevel" stroke-dasharray="3.16 3.16"/>
<path d="M71.5211 72.9338C66.3588 79.5689 62.3823 87.7571 60.0898 96.0108C57.7973 87.7571 53.8207 79.5689 48.6585 72.9338C43.5484 66.3657 37.2543 61.2922 30.2549 59.2127C37.2543 57.1331 43.5484 52.0595 48.6585 45.4915C53.8207 38.8563 57.7973 30.6683 60.0898 22.4146C62.3823 30.6683 66.3588 38.8563 71.5211 45.4915C76.6312 52.0595 82.9253 57.1331 89.9247 59.2127C82.9253 61.2922 76.6312 66.3657 71.5211 72.9338Z" stroke="url(#paint1_linear_314_370)" stroke-width="0.789203"/>
<path d="M44.8137 43.6357L40.7285 75.007H48.6373L50.8878 57.3733L57.4329 68.9011H62.3031L68.9529 57.1628L71.4215 75.007H79.5309L74.9514 43.6357H67.249L60.1311 61.3776L53.0249 43.6357H44.8137Z" fill="#190C13"/>
</g>
<defs>
<linearGradient id="paint0_linear_314_370" x1="41.6046" y1="6.31339" x2="97.904" y2="117.232" gradientUnits="userSpaceOnUse">
<stop stop-color="#190C13"/>
<stop offset="0.975325" stop-color="#190C13" stop-opacity="0"/>
</linearGradient>
<linearGradient id="paint1_linear_314_370" x1="54.2077" y1="27.7407" x2="80.6769" y2="97.3447" gradientUnits="userSpaceOnUse">
<stop stop-color="#DC0073"/>
<stop offset="1" stop-color="white" stop-opacity="0"/>
</linearGradient>
<clipPath id="clip0_314_370">
<rect width="120" height="120" fill="white"/>
</clipPath>
</defs>
</svg>
