<svg width="180" height="180" viewBox="0 0 180 180" fill="none" xmlns="http://www.w3.org/2000/svg">
<path d="M0 40C0 17.9086 17.9086 0 40 0H140C162.091 0 180 17.9086 180 40V140C180 162.091 162.091 180 140 180H40C17.9086 180 0 162.091 0 140V40Z" fill="#DC0073"/>
<path d="M82.9204 50C64.7493 50 50.0107 64.7385 50.0107 82.9096V130H97.0797C115.251 130 129.989 115.261 129.989 97.0904V50H82.9204ZM96.908 102.003C110.746 125.967 69.2331 125.967 83.0705 102.003C69.2545 125.967 48.4875 90.0107 76.1625 90.0107C48.4875 90.0107 69.2545 54.0547 83.0705 78.0182C69.2331 54.0547 110.746 54.0547 96.908 78.0182C110.746 54.0762 131.512 90.0107 103.838 90.0107C131.512 90.0107 110.746 125.967 96.908 102.003Z" fill="#190C13"/>
</svg>
