<svg width="424" height="381" viewBox="0 0 424 381" fill="none" xmlns="http://www.w3.org/2000/svg">
<path d="M293.172 349.766C260.437 367.372 223.069 374.454 186.163 370.046C149.256 365.638 114.607 349.955 86.9403 325.134C59.2733 300.313 39.935 267.563 31.5619 231.35C23.1888 195.136 26.1886 157.221 40.1522 122.775L41.8392 123.459C28.0163 157.558 25.0468 195.091 33.3355 230.94C41.6242 266.788 60.7677 299.208 88.1559 323.779C115.544 348.349 149.844 363.875 186.379 368.239C222.913 372.602 259.905 365.592 292.309 348.163L293.172 349.766Z" fill="#D19EAB"/>
<path d="M122.008 31.5333C154.742 13.9269 192.11 6.84486 229.017 11.253C265.924 15.661 300.573 31.3447 328.239 56.1654C355.906 80.9862 375.245 113.736 383.618 149.95C391.991 186.163 388.991 224.078 375.028 258.524L373.34 257.84C387.163 223.741 390.133 186.208 381.844 150.36C373.556 114.511 354.412 82.0911 327.024 57.5204C299.636 32.9498 265.336 17.4241 228.801 13.0605C192.266 8.69679 155.275 15.7074 122.87 33.1365L122.008 31.5333Z" fill="#D19EAB"/>
<path d="M120.514 0.5L121.107 21.9783C121.328 29.9789 127.762 36.4127 135.762 36.6336L157.241 37.2267L135.762 37.8198C127.762 38.0407 121.328 44.4745 121.107 52.4751L120.514 73.9534L119.921 52.4751C119.7 44.4745 113.266 38.0407 105.265 37.8198L83.7871 37.2267L105.265 36.6336C113.266 36.4127 119.7 29.9789 119.921 21.9783L120.514 0.5Z" fill="#D19EAB"/>
<path d="M410.61 243.005L390.828 251.392C383.459 254.516 379.815 262.854 382.528 270.384L389.811 290.598L381.424 270.816C378.3 263.448 369.962 259.804 362.432 262.517L342.218 269.799L362 261.412C369.368 258.288 373.012 249.951 370.299 242.421L363.017 222.206L371.404 241.988C374.528 249.357 382.865 253.001 390.395 250.288L410.61 243.005Z" fill="#D19EAB"/>
<path d="M297.929 379.862L296.963 358.397C296.603 350.401 290.058 344.08 282.055 343.999L260.57 343.779L282.034 342.813C290.03 342.453 296.351 335.908 296.433 327.905L296.653 306.419L297.619 327.884C297.979 335.88 304.523 342.201 312.527 342.283L334.012 342.502L312.547 343.468C304.552 343.828 298.231 350.373 298.149 358.376L297.929 379.862Z" fill="#D19EAB"/>
<path d="M77.0808 117.883L55.8024 120.866C47.8762 121.977 42.1994 129.087 42.8714 137.063L44.6754 158.473L41.6926 137.195C40.5816 129.269 33.4709 123.592 25.4954 124.264L4.08485 126.068L25.3633 123.085C33.2895 121.974 38.9663 114.863 38.2943 106.888L36.4903 85.4774L39.473 106.756C40.5841 114.682 47.6948 120.359 55.6702 119.687L77.0808 117.883Z" fill="#D19EAB"/>
</svg>
